<?xml version="1.0" encoding="utf-8"?>
<!-- Generator: Adobe Illustrator 18.0.0, SVG Export Plug-In . SVG Version: 6.00 Build 0)  -->
<!DOCTYPE svg PUBLIC "-//W3C//DTD SVG 1.1//EN" "http://www.w3.org/Graphics/SVG/1.1/DTD/svg11.dtd">
<svg version="1.1" id="Layer_1" xmlns="http://www.w3.org/2000/svg" xmlns:xlink="http://www.w3.org/1999/xlink" x="0px" y="0px"
	 viewBox="0 0 169 35" enable-background="new 0 0 169 35" xml:space="preserve">
<g>
	<path fill="#58595B" d="M31.8,19.3c3.3,0,5.3,1.8,5.3,4.6c0,3-2,4.8-5.3,4.8h-3.6v4.3h-1.5V19.3C26.7,19.3,31.8,19.3,31.8,19.3z
		 M28.1,27.2h3.5c2.5,0,3.9-1.1,3.9-3.3c0-2.1-1.4-3.1-3.9-3.1h-3.5V27.2z"/>
	<path fill="#58595B" d="M44,29.6L42.5,33h-1.6L47,19.3h1.6L54.7,33h-1.7l-1.5-3.4H44z M47.6,21.1L44.5,28h6.2L47.6,21.1z"/>
	<path fill="#58595B" d="M60.6,33.1V19.3h1.5v13.7H60.6z"/>
	<path fill="#58595B" d="M80,33.1l-8.2-11v11h-1.5V19.3h1.6l8.2,11v-11h1.5v13.7H80z"/>
	<path fill="#58595B" d="M102.6,26.2c0,3.9-3.2,6.9-7.1,6.9c-4,0-7.2-3.1-7.2-6.9s3.2-6.9,7.2-6.9C99.5,19.3,102.6,22.3,102.6,26.2z
		 M90,26.2c0,3,2.6,5.4,5.5,5.4c3.1,0,5.5-2.4,5.5-5.4s-2.5-5.4-5.5-5.4C92.5,20.8,90,23.2,90,26.2z"/>
	<path fill="#58595B" d="M120,26.4v5c-1.4,1.1-3.3,1.8-5,1.8c-4,0-7.1-3.1-7.1-6.9s3.2-6.9,7.2-6.9c1.9,0,3.8,0.7,5,1.9l-0.9,1.1
		c-1.1-1.1-2.7-1.5-4.1-1.5c-3.1,0-5.6,2.4-5.6,5.4s2.5,5.4,5.6,5.4c1.2,0,2.6-0.5,3.6-1.1v-4.1L120,26.4
		C120,26.4,120,26.4,120,26.4z"/>
	<path fill="#58595B" d="M129.1,20.9v4.5h6.8v1.5h-6.8v4.7h8v1.4h-9.5V19.3h9.3v1.5C136.9,20.9,129.1,20.9,129.1,20.9z"/>
	<path fill="#58595B" d="M154,33.1l-8.2-11v11h-1.5V19.3h1.6l8.2,11v-11h1.5v13.7H154z"/>
</g>
<g>
	
		<radialGradient id="SVGID_1_" cx="-1596.1536" cy="-1194.6616" r="365.8967" gradientTransform="matrix(3.823343e-002 0 0 3.832901e-002 71.9605 46.5378)" gradientUnits="userSpaceOnUse">
		<stop  offset="0.1893" style="stop-color:#8DC63F"/>
		<stop  offset="0.629" style="stop-color:#39B54A"/>
		<stop  offset="0.9071" style="stop-color:#009444"/>
	</radialGradient>
	<path fill="url(#SVGID_1_)" d="M1.3,13.6c2.8-0.2,12.3-1.8,10.3-11.8c0,0-7.3,0.5-10.2,8.8c2-2,4.6-3.8,8.2-4.3
		C9.5,6.3,4.8,8,1.3,13.6z"/>
	<path fill="#58595B" d="M17.1,16.2c-0.5-0.8-1.2-1.4-2.1-1.9c-0.8-0.5-1.7-0.7-2.5-0.8c-0.8-0.1-1.5-0.2-2.1-0.2
		c-0.6,0-1.1,0-1.7,0.1c-0.6,0.1-1.7,0.2-3.5,0.6c-1.8,0.4-3.5,0.5-5.2,0.7l0.1,0.2c0.2,0,0.4,0,0.5,0c0.5,0,0.9,0.2,1.2,0.5
		c0.2,0.2,0.5,0.7,0.5,1.2v15.2c0,0.5-0.2,0.9-0.6,1.3c-0.4,0.4-0.8,0.5-1.3,0.5H0v0.2h8.7v-0.2H8.3c-0.5,0-0.9-0.2-1.3-0.5
		c-0.4-0.4-0.5-0.8-0.5-1.3V15l1.9-0.2c0.2,0,0.5-0.1,0.8-0.1c1.1,0,2,0.4,2.7,0.9c0.9,0.8,1.4,2.1,1.4,3.9c0,1.2-0.2,2.2-0.7,3
		c-0.7,1.1-1.6,1.8-2.7,1.8c-0.5,0-0.8-0.1-1.2-0.2c1.1,0.9,2.8,2.1,5.2,1.5c0.2-0.1,0.4-0.1,0.5-0.2s0.2-0.1,0.4-0.2
		c1.2-0.6,2.1-1.4,2.7-2.7c0.5-0.8,0.6-1.9,0.6-3.1C17.9,18.2,17.6,17.1,17.1,16.2z"/>
</g>
</svg>
