<?xml version="1.0" encoding="utf-8"?>
<!-- Generator: Adobe Illustrator 18.0.0, SVG Export Plug-In . SVG Version: 6.00 Build 0)  -->
<!DOCTYPE svg PUBLIC "-//W3C//DTD SVG 1.1//EN" "http://www.w3.org/Graphics/SVG/1.1/DTD/svg11.dtd">
<svg version="1.1" id="Layer_1" xmlns="http://www.w3.org/2000/svg" xmlns:xlink="http://www.w3.org/1999/xlink" x="0px" y="0px"
	 viewBox="0 0 23.7 39.2" enable-background="new 0 0 23.7 39.2" xml:space="preserve">
<g>
	<radialGradient id="SVGID_1_" cx="14.6614" cy="-0.2385" r="16.3533" gradientUnits="userSpaceOnUse">
		<stop  offset="0.1893" style="stop-color:#8BC53F"/>
		<stop  offset="0.629" style="stop-color:#37B34A"/>
		<stop  offset="0.9071" style="stop-color:#009345"/>
	</radialGradient>
	<path fill="url(#SVGID_1_)" d="M3.4,14.8c3.3-0.2,14.4-2,12-13.8c0,0-8.5,0.5-11.9,10.3C5.7,9,8.8,6.9,13,6.3
		C13,6.3,7.4,8.2,3.4,14.8z"/>
	<path fill="#58595B" d="M21.9,17.8c-0.6-1-1.4-1.7-2.4-2.2c-1-0.5-2-0.8-2.9-1c-1-0.1-1.8-0.2-2.5-0.2c-0.7,0-1.3,0-2,0.1
		c-0.7,0.1-2,0.3-4.1,0.7c-2.1,0.4-4.1,0.6-6,0.8L2,16.3c0.2,0,0.4,0,0.6,0c0.6,0,1.1,0.2,1.4,0.5c0.3,0.3,0.5,0.8,0.5,1.4v17.8
		c0,0.6-0.2,1.1-0.7,1.5c-0.4,0.4-0.9,0.6-1.5,0.6H2v0.3h10.1v-0.3h-0.4c-0.6,0-1.1-0.2-1.5-0.6c-0.4-0.4-0.6-0.9-0.6-1.5V16.4
		l2.2-0.3c0.3,0,0.6-0.1,0.9-0.1c1.3,0,2.3,0.4,3.1,1.1c1.1,1,1.6,2.5,1.6,4.5c0,1.4-0.3,2.6-0.8,3.5c-0.8,1.3-1.9,2-3.2,2
		c-0.6,0-1-0.1-1.4-0.3c1.2,1.1,3.3,2.5,6,1.8c0.2-0.1,0.4-0.1,0.5-0.2c0.1-0.1,0.3-0.1,0.4-0.2c1.4-0.7,2.4-1.7,3.1-3.1
		c0.5-1,0.7-2.2,0.7-3.6C22.8,20.1,22.5,18.9,21.9,17.8z"/>
</g>
</svg>
